<svg width="32" height="32" viewBox="0 0 32 32" fill="none" xmlns="http://www.w3.org/2000/svg">
<path fill-rule="evenodd" clip-rule="evenodd" d="M4.82988 17.7345L1.23855 15.939C1.13645 15.8877 1.05874 15.7976 1.02242 15.6887C0.986104 15.5798 0.994149 15.4608 1.04479 15.3578L5.04822 7.24111C5.07335 7.19006 5.10823 7.1445 5.15086 7.10702C5.19349 7.06955 5.24304 7.04089 5.29667 7.0227C5.3503 7.00451 5.40696 6.99714 5.46342 7.00101C5.51988 7.00487 5.57503 7.0199 5.62572 7.04524L9.21658 8.84135C9.31852 8.8927 9.39618 8.98254 9.43261 9.09129C9.46904 9.20004 9.46129 9.31889 9.41106 9.42191L5.40709 17.5396C5.38192 17.5905 5.34702 17.636 5.30439 17.6734C5.26176 17.7108 5.21223 17.7394 5.15862 17.7575C5.10502 17.7756 5.0484 17.7829 4.99199 17.779C4.93559 17.7751 4.8805 17.7598 4.82988 17.7345ZM25.2946 20.2828C25.4309 20.0948 25.4877 19.8603 25.4528 19.6304C25.418 19.4004 25.2942 19.1937 25.1085 19.0552L20.8344 15.9537C19.8573 16.0094 18.8802 15.8426 17.9759 15.4655C17.0717 15.0885 16.2635 14.511 15.6116 13.776C13.1603 15.5378 12.8822 15.5424 12.6955 15.5452C11.6229 15.5605 10.3245 15.3834 9.80577 13.8737C9.75529 13.7281 9.75244 13.57 9.79763 13.4225C9.84282 13.2751 9.93368 13.1461 10.0569 13.0544L13.4756 10.4985C12.2234 10.3012 10.9469 10.3215 9.7015 10.5586L6.31004 17.4339L6.53636 17.6035C10.5022 20.5664 13.1217 22.5233 17.2791 24.8388C17.6705 25.0564 18.2319 25.0992 18.5393 24.6776C18.6755 24.4899 18.7324 24.2555 18.6976 24.0257C18.6627 23.7958 18.5389 23.5892 18.3532 23.451L18.3523 23.4501L16.2235 21.8743C16.1811 21.8453 16.1449 21.808 16.1171 21.7646C16.0893 21.7212 16.0705 21.6726 16.0618 21.6217C16.0531 21.5708 16.0547 21.5187 16.0665 21.4684C16.0783 21.4181 16.1 21.3708 16.1303 21.3291C16.1607 21.2875 16.1991 21.2525 16.2432 21.2262C16.2874 21.1998 16.3363 21.1827 16.3871 21.1759C16.438 21.169 16.4897 21.1726 16.5391 21.1863C16.5886 21.2 16.6347 21.2236 16.6749 21.2557L19.7037 23.4975C19.7958 23.5675 19.9008 23.6183 20.0126 23.6471C20.1244 23.6759 20.2408 23.6821 20.3549 23.6653C20.4691 23.6485 20.5788 23.609 20.6777 23.5492C20.7767 23.4893 20.8628 23.4103 20.9311 23.3167C20.9995 23.2231 21.0487 23.1168 21.076 23.0039C21.1032 22.891 21.1079 22.7738 21.0899 22.659C21.0718 22.5443 21.0312 22.4343 20.9706 22.3354C20.91 22.2366 20.8305 22.1508 20.7367 22.0831L18.5202 20.4432C18.478 20.4141 18.4422 20.3767 18.4147 20.3333C18.3872 20.2899 18.3686 20.2414 18.3601 20.1907C18.3515 20.1399 18.3532 20.088 18.3651 20.0379C18.3769 19.9878 18.3986 19.9406 18.4288 19.8992C18.4591 19.8577 18.4974 19.8228 18.5413 19.7965C18.5852 19.7702 18.634 19.7531 18.6846 19.7461C18.7353 19.7391 18.7868 19.7425 18.8361 19.756C18.8855 19.7695 18.9316 19.7928 18.9718 19.8246L21.1879 21.4645L22.001 22.0666C22.1873 22.2045 22.4204 22.2622 22.6491 22.227C22.8777 22.1918 23.083 22.0666 23.22 21.879C23.3569 21.6914 23.4143 21.4566 23.3793 21.2264C23.3444 20.9963 23.2201 20.7895 23.0337 20.6516L20.5956 18.8471C20.5142 18.7868 20.4599 18.6965 20.4446 18.5959C20.4293 18.4954 20.4543 18.3928 20.5141 18.3108C20.574 18.2288 20.6637 18.1741 20.7636 18.1587C20.8634 18.1433 20.9653 18.1685 21.0467 18.2288L23.4841 20.0324L23.4863 20.0336L24.0764 20.4706C24.2627 20.6081 24.4956 20.6655 24.724 20.6304C24.9524 20.5953 25.1576 20.47 25.2946 20.2828ZM25.0698 18.0806L21.1686 15.2503C21.0956 15.1974 21.0063 15.1721 20.9166 15.1791C19.98 15.2528 19.0397 15.0944 18.1779 14.7177C17.3161 14.3409 16.5591 13.7574 15.9731 13.018C15.9121 12.9411 15.8241 12.8907 15.7273 12.8773C15.6304 12.8639 15.5322 12.8884 15.4528 12.9459C13.2881 14.5153 12.7774 14.7461 12.6644 14.7781C11.4144 14.7911 10.8336 14.4845 10.5366 13.652L15.1382 10.2113C15.274 10.1058 15.4299 10.0293 15.5962 9.98677C15.7625 9.94421 15.9357 9.93642 16.105 9.96388L22.5298 10.874C22.6048 10.8842 22.681 10.8723 22.7493 10.8396L23.3037 10.5689L26.5467 17.1443L25.0698 18.0806ZM27.593 17.5395L23.589 9.42191C23.5388 9.31891 23.5311 9.20012 23.5674 9.09139C23.6038 8.98267 23.6813 8.8928 23.7832 8.84135L27.3743 7.04524C27.4334 7.01541 27.4987 6.99992 27.5649 7C27.6453 6.99993 27.7241 7.02247 27.7924 7.06507C27.8608 7.10767 27.916 7.16864 27.9518 7.24111L31.9552 15.3578C32.0059 15.4608 32.0139 15.5798 31.9776 15.6887C31.9413 15.7976 31.8635 15.8877 31.7615 15.939L28.1705 17.7345C28.1198 17.7598 28.0647 17.7749 28.0083 17.7789C27.9518 17.7828 27.8952 17.7755 27.8416 17.7574C27.7879 17.7393 27.7384 17.7107 27.6957 17.6733C27.653 17.6359 27.6182 17.5905 27.593 17.5395Z" fill="#FFFFFF"/>
</svg>
