<svg width="230" height="40" viewBox="0 0 230 40" fill="none" xmlns="http://www.w3.org/2000/svg">
  <defs>
    <linearGradient id="flirtoGuruGradientOld" x1="4" y1="4" x2="34" y2="36" gradientUnits="userSpaceOnUse">
      <stop stop-color="#FF8C6B"/>
      <stop offset="1" stop-color="#F23D72"/>
    </linearGradient>
  </defs>
  <rect x="2" y="2" width="36" height="36" rx="14" fill="url(#flirtoGuruGradientOld)"/>
  <path d="M13 24.5C13 20.36 16.36 17 20.5 17H29V22H20.5C19.12 22 18 23.12 18 24.5C18 25.88 19.12 27 20.5 27H24V32H20.5C16.36 32 13 28.64 13 24.5Z" fill="white"/>
  <path d="M26 9L27.2 11.8L30 13L27.2 14.2L26 17L24.8 14.2L22 13L24.8 11.8L26 9Z" fill="#FFF4C7"/>
  <text x="50" y="18" fill="#13072C" font-family="FlirtJost, Jost, Segoe UI, sans-serif" font-size="17" font-weight="700">Flirto</text>
  <text x="50" y="31" fill="#13072C" font-family="FlirtJost, Jost, Segoe UI, sans-serif" font-size="17" font-weight="700">Guru</text>
</svg>
