<svg width="122" height="147" viewBox="0 0 122 147" fill="none" xmlns="http://www.w3.org/2000/svg">
<path d="M70.0117 117.451C131.154 99.2034 80.1508 11.1193 70.7608 1.17348C70.0339 0.403493 68.9106 0.995923 69.7342 2.14278C88.2186 27.8835 110.11 97.0534 67.5734 112.361C66.1556 112.871 65.6241 114.698 66.7161 115.736C67.1708 116.168 67.5157 116.479 67.973 116.931C68.4997 117.453 69.3015 117.663 70.0117 117.451Z" fill="#8244A2"/>
<path d="M57.1001 123.224L64.4912 99.5881C65.1906 97.3518 68.5037 97.9345 68.398 100.275L67.8016 113.482C67.7552 114.51 68.4967 115.406 69.5155 115.552L87.9195 118.193C90.2257 118.524 90.1993 121.862 87.8882 122.156L59.2617 125.804C57.8161 125.989 56.6651 124.615 57.1001 123.224Z" fill="#8244A2"/>
</svg>
